<svg height="512" viewBox="0 0 64 64" width="512" xmlns="http://www.w3.org/2000/svg"><g id="Flat"><path d="m7 3h46c2.208 0 4 1.792 4 4v4h-54v-4c0-2.208 1.792-4 4-4z" fill="#2a86c5"/><path d="m45.02 8c-.552 0-1.005-.448-1.005-1s.442-1 .995-1h.01c.552 0 1 .448 1 1s-.448 1-1 1z" fill="#136c9e"/><path d="m49.02 8c-.552 0-1.005-.448-1.005-1s.442-1 .995-1h.01c.552 0 1 .448 1 1s-.448 1-1 1z" fill="#136c9e"/><path d="m53.02 8c-.552 0-1.005-.448-1.005-1s.442-1 .995-1h.01c.552 0 1 .448 1 1s-.448 1-1 1z" fill="#136c9e"/><path d="m23 47h-16c-2.209 0-4-1.791-4-4v-32h54v36z" fill="#f2f2f2"/><path d="m20.87 30.44c-.57.57-1.2 1.04-1.87 1.42v15.14h-8v-15.09c-.59-.34-1.15-.75-1.66-1.25-3.12-3.13-3.02-8.29.22-11.53 2.46-2.47 6.03-3.11 8.98-1.91l-3.98 3.98.66 3.58 3.58.66 3.98-3.98c1.2 2.95.56 6.52-1.91 8.98z" fill="#0fb763"/><path d="m16 36v11h-2v-11c0-.55.45-1 1-1s1 .45 1 1z" fill="#009d54"/><g fill="#d8d8d8"><path d="m53 16h-16c-.553 0-1-.447-1-1s.447-1 1-1h16c.553 0 1 .447 1 1s-.447 1-1 1z"/><path d="m53 20h-4c-.553 0-1-.447-1-1s.447-1 1-1h4c.553 0 1 .447 1 1s-.447 1-1 1z"/><path d="m45 20h-8c-.553 0-1-.447-1-1s.447-1 1-1h8c.553 0 1 .447 1 1s-.447 1-1 1z"/><rect height="6" rx="1" width="6" x="28" y="24"/><rect height="6" rx="1" width="6" x="28" y="14"/><path d="m53 26h-16c-.553 0-1-.447-1-1s.447-1 1-1h16c.553 0 1 .447 1 1s-.447 1-1 1z"/><path d="m53 30h-4c-.553 0-1-.447-1-1s.447-1 1-1h4c.553 0 1 .447 1 1s-.447 1-1 1z"/><path d="m45 30h-8c-.553 0-1-.447-1-1s.447-1 1-1h8c.553 0 1 .447 1 1s-.447 1-1 1z"/></g><path d="m58.26 50.02c-.27.99-.66 1.94-1.16 2.81l1.45 2.42-3.3 3.3-2.42-1.45c-.87.5-1.82.89-2.81 1.16l-.69 2.74h-4.66l-.69-2.74c-.99-.27-1.94-.66-2.81-1.16l-2.42 1.45-3.3-3.3.34-.57.52-.86v-13.64l-.52-.86-.34-.57 3.3-3.3 2.42 1.45c.87-.5 1.82-.89 2.81-1.16l.69-2.74h4.66l.69 2.74c.99.27 1.94.66 2.81 1.16l2.42-1.45 3.3 3.3-1.45 2.42c.5.87.89 1.82 1.16 2.81l2.74.69v4.66z" fill="#f19332"/><path d="m39.24 48.94c-.17.64-.43 1.25-.75 1.81l.93 1.55-2.12 2.12-.99-.6-.56-.33c-.56.32-1.17.58-1.81.75l-.44 1.76h-3l-.44-1.76c-.64-.17-1.25-.43-1.81-.75l-1.55.93-2.12-2.12.93-1.55c-.32-.56-.58-1.17-.75-1.81l-1.76-.44v-3l1.76-.44c.17-.64.43-1.25.75-1.81l-.93-1.55 2.12-2.12 1.55.93c.56-.32 1.17-.58 1.81-.75l.44-1.76h3l.44 1.76c.64.17 1.25.43 1.81.75l.56-.33.99-.6 2.12 2.12-.93 1.55c.32.56.58 1.17.75 1.81l1.76.44v3z" fill="#f19332"/><circle cx="32" cy="47" fill="#ea8021" r="3"/><path d="m40.03 49.77c-.11.33-.24.64-.39.95l1.04 1.74-3.22 3.22-1.67-1 .52-.86.99.6 2.12-2.12-.93-1.55c.32-.56.58-1.17.75-1.81l1.76-.44v-3l-1.76-.44c-.17-.64-.43-1.25-.75-1.81l.93-1.55-2.12-2.12-.99.6-.52-.86 1.67-1 3.22 3.22-1.04 1.74c.15.31.28.62.39.95l1.97.49v4.56z" fill="#ea8021"/><circle cx="47" cy="47" fill="#e2741a" r="6"/></g><g id="Outline"><path d="m61.244 43.7-2.188-.551c-.218-.679-.487-1.333-.806-1.955l1.156-1.931c.236-.393.174-.896-.15-1.221l-1.257-1.257v-29.785c0-2.757-2.243-5-5-5h-45.999c-2.757 0-5 2.243-5 5v36c0 2.757 2.243 5 5 5h15v.5c0 .459.312.859.758.97l1.215.304c.11.322.24.638.389.942l-.644 1.073c-.236.394-.174.897.15 1.222l2.121 2.121c.324.323.828.386 1.222.15l1.073-.644c.305.148.62.278.942.389l.304 1.215c.11.445.511.758.97.758h3c.459 0 .859-.312.97-.758l.124-.495c.043.074.087.148.15.21l3.3 3.3c.323.324.829.386 1.221.15l1.931-1.156c.622.318 1.276.588 1.955.806l.551 2.188c.111.444.512.756.97.756h4.66c.458 0 .858-.312.97-.756l.551-2.188c.679-.218 1.333-.487 1.955-.806l1.931 1.156c.391.235.896.174 1.221-.15l3.3-3.3c.324-.324.387-.828.15-1.221l-1.156-1.931c.318-.622.588-1.276.806-1.955l2.188-.551c.444-.111.756-.512.756-.97v-4.66c0-.458-.312-.858-.756-.97zm-57.244-36.7c0-1.654 1.346-3 3-3h46c1.654 0 3 1.346 3 3v3h-52zm12 39v-10c0-.553-.447-1-1-1s-1 .447-1 1v10h-2v-14.093c0-.36-.193-.692-.507-.87-.544-.308-1.029-.674-1.443-1.087-2.729-2.729-2.632-7.268.216-10.115 1.723-1.722 4.092-2.478 6.359-2.117l-2.77 2.771c-.232.232-.336.563-.276.886l.653 3.589c.074.41.395.73.805.805l3.589.653c.321.064.653-.044.886-.276l2.771-2.77c.364 2.266-.396 4.638-2.117 6.359-.484.484-1.041.905-1.654 1.249-.315.177-.511.511-.511.872v14.145h-2zm4 0v-13.58c.574-.369 1.104-.796 1.579-1.271 2.688-2.688 3.521-6.637 2.125-10.062-.126-.31-.399-.536-.728-.603-.334-.064-.669.037-.905.273l-3.604 3.602-2.392-.436-.436-2.392 3.602-3.604c.237-.237.34-.576.273-.905-.066-.328-.293-.602-.603-.728-3.428-1.396-7.375-.562-10.062 2.125-3.628 3.627-3.725 9.434-.215 12.944.407.406.864.776 1.363 1.103v13.532h-3c-1.654 0-3-1.346-3-3v-30.998h52.003v22.786l-.043-.043c-.325-.325-.83-.387-1.221-.15l-1.931 1.156c-.622-.318-1.276-.588-1.955-.806l-.551-2.188c-.111-.444-.512-.756-.97-.756h-4.66c-.458 0-.858.312-.97.756l-.551 2.188c-.679.218-1.333.487-1.955.806l-1.931-1.156c-.391-.235-.896-.175-1.221.15l-3.3 3.3c-.063.063-.107.136-.15.21l-.124-.495c-.11-.445-.511-.758-.97-.758h-3c-.459 0-.859.312-.97.758l-.304 1.215c-.322.11-.638.24-.942.389l-1.073-.644c-.394-.235-.897-.174-1.222.15l-2.121 2.121c-.324.324-.387.828-.15 1.222l.644 1.073c-.148.305-.278.62-.389.942l-1.215.304c-.445.11-.758.511-.758.97v.5h-2zm13.683 7.271c-.352.094-.624.371-.712.724l-.252 1.005h-1.438l-.252-1.005c-.088-.353-.36-.63-.712-.724-.55-.147-1.076-.365-1.562-.646-.312-.182-.703-.179-1.016.008l-.888.533-1.018-1.018.533-.888c.188-.312.19-.701.008-1.016-.281-.486-.499-1.013-.646-1.562-.094-.352-.371-.624-.724-.712l-1.005-.252v-1.438l1.005-.252c.353-.088.63-.36.724-.712.147-.55.365-1.076.646-1.562.183-.314.18-.703-.008-1.016l-.533-.888 1.018-1.018.888.533c.312.187.703.19 1.016.008.486-.281 1.013-.499 1.562-.646.352-.094.624-.371.712-.724l.252-1.005h1.438l.252 1.005c.088.353.36.63.712.724.55.147 1.076.365 1.562.646.312.183.703.179 1.016-.008l.528-.317c.012-.006.025-.006.036-.013s.017-.019.028-.026l.295-.177 1.018 1.018-.533.888c-.188.312-.19.701-.008 1.016.281.486.499 1.013.646 1.562.094.352.371.624.724.712l1.005.252v1.438l-1.005.252c-.353.088-.63.36-.724.712-.147.55-.365 1.076-.646 1.562-.183.314-.18.703.008 1.016l.533.888-1.018 1.018-.295-.177c-.011-.007-.017-.019-.028-.026-.012-.007-.025-.007-.037-.013l-.528-.317c-.312-.187-.703-.189-1.016-.008-.486.281-1.013.499-1.562.646zm26.317-4.721-1.984.499c-.351.088-.626.358-.721.707-.249.916-.606 1.782-1.062 2.575-.181.314-.177.701.01 1.012l1.049 1.751-2.196 2.196-1.751-1.049c-.312-.186-.698-.19-1.012-.01-.793.456-1.659.813-2.575 1.062-.349.095-.619.37-.707.721l-.499 1.984h-3.102l-.499-1.984c-.088-.351-.358-.626-.707-.721-.916-.249-1.782-.606-2.575-1.062-.313-.18-.7-.176-1.012.01l-1.751 1.049-1.94-1.94c.36.13.767.059 1.046-.219l2.121-2.121c.324-.324.387-.828.15-1.222l-.644-1.073c.148-.305.278-.62.389-.942l.497-.124c1.047 2.549 3.554 4.351 6.476 4.351 3.859 0 7-3.141 7-7s-3.141-7-7-7c-2.922 0-5.429 1.802-6.476 4.351l-.497-.124c-.11-.322-.24-.638-.389-.942l.644-1.073c.236-.394.174-.897-.15-1.222l-2.121-2.121c-.278-.278-.686-.35-1.045-.22l1.94-1.94 1.751 1.049c.312.186.698.19 1.012.01.793-.456 1.659-.813 2.575-1.062.349-.095.619-.37.707-.721l.499-1.984h3.102l.499 1.984c.088.351.358.626.707.721.916.249 1.782.606 2.575 1.062.314.181.701.177 1.012-.01l1.751-1.049 2.196 2.196-1.049 1.751c-.187.311-.19.697-.01 1.012.456.793.813 1.659 1.062 2.575.095.349.37.619.721.707l1.984.499v3.102zm-13-6.551c2.757 0 5 2.243 5 5s-2.243 5-5 5-5-2.243-5-5 2.243-5 5-5z"/><path d="m45.02 6h-.01c-.552 0-.995.448-.995 1s.453 1 1.005 1 1-.448 1-1-.448-1-1-1z"/><path d="m49.02 6h-.01c-.552 0-.995.448-.995 1s.453 1 1.005 1 1-.448 1-1-.448-1-1-1z"/><path d="m53.02 6h-.01c-.552 0-.995.448-.995 1s.453 1 1.005 1 1-.448 1-1-.448-1-1-1z"/><path d="m32 43c-2.206 0-4 1.794-4 4s1.794 4 4 4 4-1.794 4-4-1.794-4-4-4zm0 6c-1.103 0-2-.897-2-2s.897-2 2-2 2 .897 2 2-.897 2-2 2z"/><path d="m29 20h4c.553 0 1-.447 1-1v-4c0-.553-.447-1-1-1h-4c-.553 0-1 .447-1 1v4c0 .553.447 1 1 1zm1-4h2v2h-2z"/><path d="m37 16h16c.553 0 1-.447 1-1s-.447-1-1-1h-16c-.553 0-1 .447-1 1s.447 1 1 1z"/><path d="m53 18h-4c-.553 0-1 .447-1 1s.447 1 1 1h4c.553 0 1-.447 1-1s-.447-1-1-1z"/><path d="m37 20h8c.553 0 1-.447 1-1s-.447-1-1-1h-8c-.553 0-1 .447-1 1s.447 1 1 1z"/><path d="m29 30h4c.553 0 1-.447 1-1v-4c0-.553-.447-1-1-1h-4c-.553 0-1 .447-1 1v4c0 .553.447 1 1 1zm1-4h2v2h-2z"/><path d="m37 26h16c.553 0 1-.447 1-1s-.447-1-1-1h-16c-.553 0-1 .447-1 1s.447 1 1 1z"/><path d="m53 28h-4c-.553 0-1 .447-1 1s.447 1 1 1h4c.553 0 1-.447 1-1s-.447-1-1-1z"/><path d="m37 30h8c.553 0 1-.447 1-1s-.447-1-1-1h-8c-.553 0-1 .447-1 1s.447 1 1 1z"/></g></svg>