<svg id="Layer_1" viewBox="0 0 512 512" xmlns="http://www.w3.org/2000/svg" data-name="Layer 1"><path d="m365.191 318.578a22.392 22.392 0 0 0 22.367-22.366v-109.078a22.366 22.366 0 1 0 -44.732 0v109.078a22.391 22.391 0 0 0 22.365 22.366zm-8.361-131.444a8.362 8.362 0 1 1 16.724 0v109.078a8.362 8.362 0 1 1 -16.724 0zm-215.83-28.034a7 7 0 0 0 -5.207 2.321c-22.855 25.423-36.481 48.782-40.5 69.431-3.536 18.159.69 34.117 11.9 44.934 9.082 8.766 21.583 13.15 34.071 13.15 12.433 0 24.856-4.347 33.871-13.049 11.18-10.788 15.358-26.739 11.765-44.917-4.081-20.652-17.771-44.051-40.688-69.549a7.005 7.005 0 0 0 -5.212-2.321zm24.407 106.711c-12.665 12.221-35.778 12.174-48.493-.1-7.787-7.516-10.511-18.645-7.876-32.183 3.179-16.33 14.185-35.854 31.962-56.788 17.85 21.013 28.926 40.6 32.158 56.947 2.674 13.537-.006 24.646-7.753 32.122zm34.327-38v138.5a25.711 25.711 0 0 0 25.68 25.689h166.82a25.727 25.727 0 0 0 25.712-25.682v-205.036a25.727 25.727 0 0 0 -25.712-25.682h-100.092a25.272 25.272 0 0 0 -18.154 7.487l-4.784 4.773-7.559-7.559a18.762 18.762 0 0 0 -26.442.015l-2.408 2.408c-10.507-10.627-17.67-17.231-27.481-20.44-10.636-3.476-22.965-2.671-46.582.451a7 7 0 0 0 -6.085 6.941v16.753a7 7 0 0 0 7 7h28.744a7.646 7.646 0 0 1 6.19 2.541l12.481 12.483-2.476 2.475a18.73 18.73 0 0 0 0 26.457l7.471 7.47-4.777 4.766a24.9 24.9 0 0 0 -7.548 18.191zm74.144-64.836c.1-.086.194-.166.285-.258s.163-.18.245-.271l9.459-9.434a11.087 11.087 0 0 1 8.277-3.41h100.09a11.707 11.707 0 0 1 11.708 11.679v205.033a11.707 11.707 0 0 1 -11.708 11.678h-166.82a11.691 11.691 0 0 1 -11.678-11.678v-138.5a11.064 11.064 0 0 1 3.441-8.282l9.408-9.384c.118-.1.238-.2.35-.316s.2-.221.3-.332zm-28.778-12.758a4.786 4.786 0 0 1 6.654 0l7.531 7.531-37.314 37.219-7.484-7.484a4.708 4.708 0 0 1 0-6.651l7.424-7.425zm-40.642-4.17a21.546 21.546 0 0 0 -16.069-6.621h-21.737v-3.6c33.335-4.251 37-2.666 56.242 16.8l-5.928 5.927zm-144.058 173.519-16.187 31.494a7 7 0 0 1 -9.622 2.923l-30.984-17.178a7 7 0 0 1 6.793-12.246l14.336 7.948a243.651 243.651 0 0 1 109.472-287.444c106.275-61.336 242.1-33.883 315.941 63.865a7 7 0 1 1 -11.174 8.441c-69.588-92.119-197.6-117.989-297.765-60.178-94.91 54.815-137.71 170.919-102.293 273.539l9.028-17.564a7 7 0 0 1 12.455 6.4zm450.722-134.85a7 7 0 0 1 -9.518 2.732l-14.349-7.948a243.585 243.585 0 0 1 -425.4 223.577 7 7 0 1 1 11.174-8.442c69.584 92.114 197.583 117.987 297.738 60.179 95.345-55.052 137.831-170.773 102.3-273.56l-9.038 17.585a7 7 0 0 1 -12.455-6.4l16.186-31.493a7 7 0 0 1 9.62-2.925l31.01 17.179a7 7 0 0 1 2.732 9.516z"/></svg>